<svg width="960" height="420" viewBox="0 0 960 420" fill="none" xmlns="http://www.w3.org/2000/svg">
  <rect width="960" height="420" fill="none"/>
  <path d="M24 306H916" stroke="#AFC6E4" stroke-width="1.2" opacity=".48"/>
  <path d="M54 306V226H156V306M70 226V188H138V226M90 188C96 158 118 158 126 188M82 246H128M82 266H128M82 286H128M104 226V306" stroke="#8FACD1" stroke-width="1.25"/>
  <path d="M176 306V188H280V306M192 188C204 146 248 146 264 188M212 306V244H244V306M202 214H258M202 234H258M202 254H258M190 278H268" stroke="#8FACD1" stroke-width="1.25"/>
  <path d="M312 306V116H346V306M312 140H346M312 166H346M312 192H346M312 218H346M312 244H346M312 270H346M318 102H340" stroke="#8FACD1" stroke-width="1.25"/>
  <path d="M382 306V198H530V306M382 198C412 154 500 154 530 198M414 306V246H494V306M416 220H494M400 238H514M432 176V306M476 174V306" stroke="#8FACD1" stroke-width="1.25"/>
  <path d="M560 306V174H648V306M574 174V132H632V174M590 132C596 102 614 102 622 132M582 204H626M582 226H626M582 248H626M582 270H626" stroke="#8FACD1" stroke-width="1.25"/>
  <path d="M686 306V164M660 306V216H740V306M686 164C690 132 708 132 714 164M680 216C686 190 716 190 722 216M674 240H728M674 262H728M674 284H728" stroke="#8FACD1" stroke-width="1.25"/>
  <path d="M772 306V226H866V306M790 226V192H846V226M804 192C810 166 828 166 836 192M794 250H842M794 272H842M820 226V306" stroke="#8FACD1" stroke-width="1.25"/>
  <path d="M888 306V196H934V306M900 220H922M900 244H922M900 268H922" stroke="#AFC6E4" stroke-width="1.05"/>
  <path d="M898 214H924V252H898V214Z" stroke="#AFC6E4" stroke-width=".95" opacity=".7"/>
  <path d="M105 112C124 90 162 94 174 122C194 118 214 130 220 148H82C86 132 94 120 105 112Z" stroke="#AFC6E4" stroke-width="1.15"/>
  <path d="M448 116C466 96 502 100 514 126C534 122 552 134 558 152H424C428 136 436 124 448 116Z" stroke="#AFC6E4" stroke-width="1.15"/>
  <path d="M720 86C734 76 748 76 762 86M782 76C794 66 810 66 822 76M254 104C266 94 282 94 294 104M800 134C812 124 828 124 840 134" stroke="#8FACD1" stroke-width="1.05"/>
  <path d="M382 340C416 352 522 352 556 340L584 306H354L382 340Z" fill="#CBEFF0" stroke="#0F8A98" stroke-width="2"/>
  <path d="M466 306V270M466 270L500 302M466 270L434 302" stroke="#0F8A98" stroke-width="1.8"/>
  <path d="M334 364C396 378 544 378 606 364" stroke="#AFC6E4" stroke-width="1.1" opacity=".55"/>
  <path d="M42 334C122 320 196 324 260 334M642 334C740 318 832 320 916 334" stroke="#D8E5F3" stroke-width="1"/>
  <path d="M36 356C140 374 270 374 374 356M590 356C706 374 842 374 930 356" stroke="#D8E5F3" stroke-width=".9" opacity=".55"/>
</svg>
