<svg width="1200" height="180" viewBox="0 0 1200 180" fill="none" xmlns="http://www.w3.org/2000/svg">
  <path d="M0 142H1200" stroke="#BFD3EA" stroke-width="1" opacity=".55"/>
  <path d="M42 142V98H104V142M58 98V74H88V98M186 142V82H248V142M278 142V54H296V142M322 142V100H374V142" stroke="#BFD3EA" stroke-width="1.2"/>
  <path d="M454 142C466 112 506 112 518 142M538 142C552 98 604 98 618 142" stroke="#BFD3EA" stroke-width="1.2"/>
  <path d="M684 142V86H756V142M704 86V58H736V86M804 142V68H824V142M858 142V96H928V142M946 142V82H996V142M1018 142V104H1080V142" stroke="#BFD3EA" stroke-width="1.2"/>
  <path d="M514 158C548 169 652 169 686 158L708 142H492L514 158Z" fill="#E3F6F7" stroke="#5CAFB9" stroke-width="1.4"/>
  <path d="M598 142V120M598 120L616 140M598 120L580 140" stroke="#5CAFB9" stroke-width="1.2"/>
  <path d="M102 58C114 46 138 48 146 64C160 62 174 70 178 82H86C88 72 94 64 102 58Z" stroke="#D2E0F0" stroke-width="1"/>
  <path d="M922 46C934 36 954 38 962 52C974 50 986 58 990 70H906C908 60 914 52 922 46Z" stroke="#D2E0F0" stroke-width="1"/>
  <path d="M140 42C148 36 158 36 166 42M1036 48C1044 42 1054 42 1062 48" stroke="#BFD3EA" stroke-width="1"/>
</svg>
